<!--?xml version="1.0" standalone="no"?-->
              <svg id="sw-js-blob-svg" viewBox="0 0 100 100" xmlns="http://www.w3.org/2000/svg" version="1.1">
                    <defs> 
                        <linearGradient id="sw-gradient" x1="0" x2="1" y1="1" y2="0">
                            <stop id="stop1" stop-color="rgba(248, 117, 55, 1)" offset="0%"></stop>
                            <stop id="stop2" stop-color="rgba(251, 168, 31, 1)" offset="100%"></stop>
                        </linearGradient>
                    </defs>
                <path fill="url(#sw-gradient)" d="M16.3,-26.4C22.1,-21.5,28.7,-18.8,31.6,-14C34.6,-9.1,34,-2.2,33.2,4.9C32.4,11.9,31.3,19.1,27.1,22.9C22.9,26.6,15.5,27.1,8.3,29.9C1.2,32.8,-5.8,38,-12.9,38.5C-20.1,38.9,-27.5,34.6,-32.4,28.4C-37.3,22.2,-39.8,14.1,-39.9,6.4C-40,-1.4,-37.8,-8.8,-33.9,-14.6C-29.9,-20.4,-24.2,-24.6,-18.2,-29.4C-12.3,-34.3,-6.2,-39.9,-0.5,-39.2C5.2,-38.4,10.4,-31.4,16.3,-26.4Z" width="100%" height="100%" transform="translate(50 50)" style="transition: all 0.3s ease 0s;" stroke-width="0"></path>
              </svg>